# xmcd
#
# Track frame offsets:
#	150
#	12736
#	24704
#	37774
#	51431
#	62211
#	75920
#	88021
#	100345
#	112243
#	124844
#	137500
#
# Disc length: 1999 seconds
#
# Revision: 1
# Processed by: cddbd v1.5.2PL0 Copyright (c) Steve Scherf et al.
# Submitted via: audiograbber 1.83.01
#
DISCID=a007cd0c
DTITLE=Little Walter - Boss Blues Harmonica [CD 2)
DYEAR=1986
DGENRE=Blues
TTITLE0=Back Track
TTITLE1=It's Too Late, Brother
TTITLE2=Just A Feeling
TTITLE3=Teenage Beat
TTITLE4=Just Your Fool
TTITLE5=Flying Saucer
TTITLE6=I Got To Go
TTITLE7=Shake Dancer
TTITLE8=Too Late
TTITLE9=Thunderbird
TTITLE10=Ah'w Baby
TTITLE11=Boom Boom, Out Go The Lights
EXTD=
EXTT0=
EXTT1=
EXTT2=
EXTT3=
EXTT4=
EXTT5=
EXTT6=
EXTT7=
EXTT8=
EXTT9=
EXTT10=
EXTT11=
PLAYORDER=
